<svg xmlns="http://www.w3.org/2000/svg" width="48" height="48" viewBox="0 0 48 48" fill="none"><path d="M44 24C44 12.96 35.04 4 24 4C12.96 4 4 12.96 4 24C4 35.04 12.96 44 24 44" stroke="#DC834E" stroke-width="2" stroke-linecap="round" stroke-linejoin="round"></path><g opacity="0.4"><path d="M15.9992 6H17.9992C14.0992 17.68 14.0992 30.32 17.9992 42H15.9992" stroke="#DC834E" stroke-width="2" stroke-linecap="round" stroke-linejoin="round"></path><path d="M30 6C31.94 11.84 32.92 17.92 32.92 24" stroke="#DC834E" stroke-width="2" stroke-linecap="round" stroke-linejoin="round"></path><path d="M6 32V30C11.84 31.94 17.92 32.92 24 32.92" stroke="#DC834E" stroke-width="2" stroke-linecap="round" stroke-linejoin="round"></path><path d="M6 18.0002C17.68 14.1002 30.32 14.1002 42 18.0002" stroke="#DC834E" stroke-width="2" stroke-linecap="round" stroke-linejoin="round"></path></g><path d="M36.4 42.8C39.9346 42.8 42.8 39.9346 42.8 36.4C42.8 32.8654 39.9346 30 36.4 30C32.8654 30 30 32.8654 30 36.4C30 39.9346 32.8654 42.8 36.4 42.8Z" stroke="#DC834E" stroke-width="2" stroke-linecap="round" stroke-linejoin="round"></path><path d="M44 44L42 42" stroke="#DC834E" stroke-width="2" stroke-linecap="round" stroke-linejoin="round"></path></svg>