<svg xmlns="http://www.w3.org/2000/svg" width="48" height="48" viewBox="0 0 48 48" fill="none"><path d="M38 18C38 20.9 37.14 23.56 35.66 25.78C33.5 28.98 30.08 31.24 26.1 31.82C25.42 31.94 24.72 32 24 32C23.28 32 22.58 31.94 21.9 31.82C17.92 31.24 14.5 28.98 12.34 25.78C10.86 23.56 10 20.9 10 18C10 10.26 16.26 4 24 4C31.74 4 38 10.26 38 18Z" stroke="#DC834E" stroke-width="2" stroke-linecap="round" stroke-linejoin="round"></path><path opacity="0.4" d="M42.5002 36.9401L39.2002 37.72C38.4602 37.9 37.8802 38.4601 37.7202 39.2001L37.0202 42.1401C36.6402 43.7401 34.6002 44.2201 33.5402 42.9601L24.0002 32.0001L14.4602 42.98C13.4002 44.24 11.3602 43.76 10.9802 42.16L10.2802 39.22C10.1002 38.48 9.52016 37.9001 8.80016 37.7401L5.50016 36.9601C3.98016 36.6001 3.44016 34.7 4.54016 33.6L12.3402 25.8C14.5002 29 17.9202 31.2601 21.9002 31.8401C22.5802 31.9601 23.2802 32.0201 24.0002 32.0201C24.7202 32.0201 25.4202 31.9601 26.1002 31.8401C30.0802 31.2601 33.5002 29 35.6602 25.8L43.4602 33.6C44.5602 34.68 44.0202 36.5801 42.5002 36.9401Z" stroke="#DC834E" stroke-width="2" stroke-linecap="round" stroke-linejoin="round"></path><path opacity="0.4" d="M25.1599 11.96L26.3399 14.32C26.4999 14.64 26.9199 14.96 27.2999 15.02L29.4399 15.38C30.7999 15.6 31.1199 16.6 30.1399 17.58L28.4799 19.24C28.1999 19.52 28.0399 20.06 28.1399 20.46L28.6199 22.52C28.9999 24.14 28.1399 24.78 26.6999 23.92L24.6999 22.74C24.3399 22.52 23.7399 22.52 23.3799 22.74L21.3799 23.92C19.9399 24.76 19.0799 24.14 19.4599 22.52L19.9399 20.46C20.0199 20.08 19.8799 19.52 19.5999 19.24L17.9399 17.58C16.9599 16.6 17.2799 15.62 18.6399 15.38L20.7799 15.02C21.1399 14.96 21.5599 14.64 21.7199 14.32L22.8999 11.96C23.4799 10.68 24.5199 10.68 25.1599 11.96Z" stroke="#DC834E" stroke-width="2" stroke-linecap="round" stroke-linejoin="round"></path></svg>