<svg xmlns="http://www.w3.org/2000/svg" width="266" height="132" viewBox="0 0 266 132" fill="none" class="bdt-preserve bdt-svg" data-svg="https://demo43.atiframe.com/wp-content/uploads/2021/01/Decor-circle.svg"><g clip-path="url(#clip0)"><circle cx="1" cy="11" r="1" fill="#1A1A1A"></circle><circle cx="1" cy="23" r="1" fill="#1A1A1A"></circle><circle cx="1" cy="35" r="1" fill="#1A1A1A"></circle><circle cx="13" cy="11" r="1" fill="#1A1A1A"></circle><circle cx="13" cy="23" r="1" fill="#1A1A1A"></circle><circle cx="13" cy="35" r="1" fill="#1A1A1A"></circle><circle cx="13" cy="47" r="1" fill="#1A1A1A"></circle><circle cx="13" cy="59" r="1" fill="#1A1A1A"></circle><circle cx="25" cy="11" r="1" fill="#1A1A1A"></circle><circle cx="25" cy="23" r="1" fill="#1A1A1A"></circle><circle cx="25" cy="35" r="1" fill="#1A1A1A"></circle><circle cx="25" cy="47" r="1" fill="#1A1A1A"></circle><circle cx="25" cy="59" r="1" fill="#1A1A1A"></circle><circle cx="25" cy="71" r="1" fill="#1A1A1A"></circle><circle cx="25" cy="83" r="1" fill="#1A1A1A"></circle><circle cx="37" cy="11" r="1" fill="#1A1A1A"></circle><circle cx="37" cy="23" r="1" fill="#1A1A1A"></circle><circle cx="37" cy="35" r="1" fill="#1A1A1A"></circle><circle cx="37" cy="47" r="1" fill="#1A1A1A"></circle><circle cx="37" cy="59" r="1" fill="#1A1A1A"></circle><circle cx="37" cy="71" r="1" fill="#1A1A1A"></circle><circle cx="37" cy="83" r="1" fill="#1A1A1A"></circle><circle cx="37" cy="95" r="1" fill="#1A1A1A"></circle><circle cx="49" cy="11" r="1" fill="#1A1A1A"></circle><circle cx="49" cy="23" r="1" fill="#1A1A1A"></circle><circle cx="49" cy="35" r="1" fill="#1A1A1A"></circle><circle cx="49" cy="47" r="1" fill="#1A1A1A"></circle><circle cx="49" cy="59" r="1" fill="#1A1A1A"></circle><circle cx="49" cy="71" r="1" fill="#1A1A1A"></circle><circle cx="49" cy="83" r="1" fill="#1A1A1A"></circle><circle cx="49" cy="95" r="1" fill="#1A1A1A"></circle><circle cx="49" cy="107" r="1" fill="#1A1A1A"></circle><circle cx="61" cy="11" r="1" fill="#1A1A1A"></circle><circle cx="61" cy="23" r="1" fill="#1A1A1A"></circle><circle cx="61" cy="35" r="1" fill="#1A1A1A"></circle><circle cx="61" cy="47" r="1" fill="#1A1A1A"></circle><circle cx="61" cy="59" r="1" fill="#1A1A1A"></circle><circle cx="61" cy="71" r="1" fill="#1A1A1A"></circle><circle cx="61" cy="83" r="1" fill="#1A1A1A"></circle><circle cx="61" cy="95" r="1" fill="#1A1A1A"></circle><circle cx="61" cy="107" r="1" fill="#1A1A1A"></circle><circle cx="73" cy="11" r="1" fill="#1A1A1A"></circle><circle cx="73" cy="23" r="1" fill="#1A1A1A"></circle><circle cx="73" cy="35" r="1" fill="#1A1A1A"></circle><circle cx="73" cy="47" r="1" fill="#1A1A1A"></circle><circle cx="73" cy="59" r="1" fill="#1A1A1A"></circle><circle cx="73" cy="71" r="1" fill="#1A1A1A"></circle><circle cx="73" cy="83" r="1" fill="#1A1A1A"></circle><circle cx="73" cy="95" r="1" fill="#1A1A1A"></circle><circle cx="73" cy="107" r="1" fill="#1A1A1A"></circle><circle cx="73" cy="119" r="1" fill="#1A1A1A"></circle><circle cx="85" cy="11" r="1" fill="#1A1A1A"></circle><circle cx="85" cy="23" r="1" fill="#1A1A1A"></circle><circle cx="85" cy="35" r="1" fill="#1A1A1A"></circle><circle cx="85" cy="47" r="1" fill="#1A1A1A"></circle><circle cx="85" cy="59" r="1" fill="#1A1A1A"></circle><circle cx="85" cy="71" r="1" fill="#1A1A1A"></circle><circle cx="85" cy="83" r="1" fill="#1A1A1A"></circle><circle cx="85" cy="95" r="1" fill="#1A1A1A"></circle><circle cx="85" cy="107" r="1" fill="#1A1A1A"></circle><circle cx="85" cy="119" r="1" fill="#1A1A1A"></circle><circle cx="97" cy="11" r="1" fill="#1A1A1A"></circle><circle cx="97" cy="23" r="1" fill="#1A1A1A"></circle><circle cx="97" cy="35" r="1" fill="#1A1A1A"></circle><circle cx="97" cy="47" r="1" fill="#1A1A1A"></circle><circle cx="97" cy="59" r="1" fill="#1A1A1A"></circle><circle cx="97" cy="71" r="1" fill="#1A1A1A"></circle><circle cx="97" cy="83" r="1" fill="#1A1A1A"></circle><circle cx="97" cy="95" r="1" fill="#1A1A1A"></circle><circle cx="97" cy="107" r="1" fill="#1A1A1A"></circle><circle cx="97" cy="119" r="1" fill="#1A1A1A"></circle><circle cx="97" cy="131" r="1" fill="#1A1A1A"></circle><circle cx="109" cy="11" r="1" fill="#1A1A1A"></circle><circle cx="109" cy="23" r="1" fill="#1A1A1A"></circle><circle cx="109" cy="35" r="1" fill="#1A1A1A"></circle><circle cx="109" cy="47" r="1" fill="#1A1A1A"></circle><circle cx="109" cy="59" r="1" fill="#1A1A1A"></circle><circle cx="109" cy="71" r="1" fill="#1A1A1A"></circle><circle cx="109" cy="83" r="1" fill="#1A1A1A"></circle><circle cx="109" cy="95" r="1" fill="#1A1A1A"></circle><circle cx="109" cy="107" r="1" fill="#1A1A1A"></circle><circle cx="109" cy="119" r="1" fill="#1A1A1A"></circle><circle cx="109" cy="131" r="1" fill="#1A1A1A"></circle><circle cx="121" cy="11" r="1" fill="#1A1A1A"></circle><circle cx="121" cy="23" r="1" fill="#1A1A1A"></circle><circle cx="121" cy="35" r="1" fill="#1A1A1A"></circle><circle cx="121" cy="47" r="1" fill="#1A1A1A"></circle><circle cx="121" cy="59" r="1" fill="#1A1A1A"></circle><circle cx="121" cy="71" r="1" fill="#1A1A1A"></circle><circle cx="121" cy="83" r="1" fill="#1A1A1A"></circle><circle cx="121" cy="95" r="1" fill="#1A1A1A"></circle><circle cx="121" cy="107" r="1" fill="#1A1A1A"></circle><circle cx="121" cy="119" r="1" fill="#1A1A1A"></circle><circle cx="121" cy="131" r="1" fill="#1A1A1A"></circle><circle cx="133" cy="11" r="1" fill="#1A1A1A"></circle><circle cx="133" cy="23" r="1" fill="#1A1A1A"></circle><circle cx="133" cy="35" r="1" fill="#1A1A1A"></circle><circle cx="133" cy="47" r="1" fill="#1A1A1A"></circle><circle cx="133" cy="59" r="1" fill="#1A1A1A"></circle><circle cx="133" cy="71" r="1" fill="#1A1A1A"></circle><circle cx="133" cy="83" r="1" fill="#1A1A1A"></circle><circle cx="133" cy="95" r="1" fill="#1A1A1A"></circle><circle cx="133" cy="107" r="1" fill="#1A1A1A"></circle><circle cx="133" cy="119" r="1" fill="#1A1A1A"></circle><circle cx="133" cy="131" r="1" fill="#1A1A1A"></circle><circle cx="145" cy="11" r="1" fill="#1A1A1A"></circle><circle cx="145" cy="23" r="1" fill="#1A1A1A"></circle><circle cx="145" cy="35" r="1" fill="#1A1A1A"></circle><circle cx="145" cy="47" r="1" fill="#1A1A1A"></circle><circle cx="145" cy="59" r="1" fill="#1A1A1A"></circle><circle cx="145" cy="71" r="1" fill="#1A1A1A"></circle><circle cx="145" cy="83" r="1" fill="#1A1A1A"></circle><circle cx="145" cy="95" r="1" fill="#1A1A1A"></circle><circle cx="145" cy="107" r="1" fill="#1A1A1A"></circle><circle cx="145" cy="119" r="1" fill="#1A1A1A"></circle><circle cx="145" cy="131" r="1" fill="#1A1A1A"></circle><circle cx="157" cy="11" r="1" fill="#1A1A1A"></circle><circle cx="157" cy="23" r="1" fill="#1A1A1A"></circle><circle cx="157" cy="35" r="1" fill="#1A1A1A"></circle><circle cx="157" cy="47" r="1" fill="#1A1A1A"></circle><circle cx="157" cy="59" r="1" fill="#1A1A1A"></circle><circle cx="157" cy="71" r="1" fill="#1A1A1A"></circle><circle cx="157" cy="83" r="1" fill="#1A1A1A"></circle><circle cx="157" cy="95" r="1" fill="#1A1A1A"></circle><circle cx="157" cy="107" r="1" fill="#1A1A1A"></circle><circle cx="157" cy="119" r="1" fill="#1A1A1A"></circle><circle cx="157" cy="131" r="1" fill="#1A1A1A"></circle><circle cx="169" cy="11" r="1" fill="#1A1A1A"></circle><circle cx="169" cy="23" r="1" fill="#1A1A1A"></circle><circle cx="169" cy="35" r="1" fill="#1A1A1A"></circle><circle cx="169" cy="47" r="1" fill="#1A1A1A"></circle><circle cx="169" cy="59" r="1" fill="#1A1A1A"></circle><circle cx="169" cy="71" r="1" fill="#1A1A1A"></circle><circle cx="169" cy="83" r="1" fill="#1A1A1A"></circle><circle cx="169" cy="95" r="1" fill="#1A1A1A"></circle><circle cx="169" cy="107" r="1" fill="#1A1A1A"></circle><circle cx="169" cy="119" r="1" fill="#1A1A1A"></circle><circle cx="169" cy="131" r="1" fill="#1A1A1A"></circle><circle cx="181" cy="11" r="1" fill="#1A1A1A"></circle><circle cx="181" cy="23" r="1" fill="#1A1A1A"></circle><circle cx="181" cy="35" r="1" fill="#1A1A1A"></circle><circle cx="181" cy="47" r="1" fill="#1A1A1A"></circle><circle cx="181" cy="59" r="1" fill="#1A1A1A"></circle><circle cx="181" cy="71" r="1" fill="#1A1A1A"></circle><circle cx="181" cy="83" r="1" fill="#1A1A1A"></circle><circle cx="181" cy="95" r="1" fill="#1A1A1A"></circle><circle cx="181" cy="107" r="1" fill="#1A1A1A"></circle><circle cx="181" cy="119" r="1" fill="#1A1A1A"></circle><circle cx="193" cy="11" r="1" fill="#1A1A1A"></circle><circle cx="193" cy="23" r="1" fill="#1A1A1A"></circle><circle cx="193" cy="35" r="1" fill="#1A1A1A"></circle><circle cx="193" cy="47" r="1" fill="#1A1A1A"></circle><circle cx="193" cy="59" r="1" fill="#1A1A1A"></circle><circle cx="193" cy="71" r="1" fill="#1A1A1A"></circle><circle cx="193" cy="83" r="1" fill="#1A1A1A"></circle><circle cx="193" cy="95" r="1" fill="#1A1A1A"></circle><circle cx="193" cy="107" r="1" fill="#1A1A1A"></circle><circle cx="193" cy="119" r="1" fill="#1A1A1A"></circle><circle cx="205" cy="11" r="1" fill="#1A1A1A"></circle><circle cx="205" cy="23" r="1" fill="#1A1A1A"></circle><circle cx="205" cy="35" r="1" fill="#1A1A1A"></circle><circle cx="205" cy="47" r="1" fill="#1A1A1A"></circle><circle cx="205" cy="59" r="1" fill="#1A1A1A"></circle><circle cx="205" cy="71" r="1" fill="#1A1A1A"></circle><circle cx="205" cy="83" r="1" fill="#1A1A1A"></circle><circle cx="205" cy="95" r="1" fill="#1A1A1A"></circle><circle cx="205" cy="107" r="1" fill="#1A1A1A"></circle><circle cx="217" cy="11" r="1" fill="#1A1A1A"></circle><circle cx="217" cy="23" r="1" fill="#1A1A1A"></circle><circle cx="217" cy="35" r="1" fill="#1A1A1A"></circle><circle cx="217" cy="47" r="1" fill="#1A1A1A"></circle><circle cx="217" cy="59" r="1" fill="#1A1A1A"></circle><circle cx="217" cy="71" r="1" fill="#1A1A1A"></circle><circle cx="217" cy="83" r="1" fill="#1A1A1A"></circle><circle cx="217" cy="95" r="1" fill="#1A1A1A"></circle><circle cx="217" cy="107" r="1" fill="#1A1A1A"></circle><circle cx="229" cy="11" r="1" fill="#1A1A1A"></circle><circle cx="229" cy="23" r="1" fill="#1A1A1A"></circle><circle cx="229" cy="35" r="1" fill="#1A1A1A"></circle><circle cx="229" cy="47" r="1" fill="#1A1A1A"></circle><circle cx="229" cy="59" r="1" fill="#1A1A1A"></circle><circle cx="229" cy="71" r="1" fill="#1A1A1A"></circle><circle cx="229" cy="83" r="1" fill="#1A1A1A"></circle><circle cx="229" cy="95" r="1" fill="#1A1A1A"></circle><circle cx="241" cy="11" r="1" fill="#1A1A1A"></circle><circle cx="241" cy="23" r="1" fill="#1A1A1A"></circle><circle cx="241" cy="35" r="1" fill="#1A1A1A"></circle><circle cx="241" cy="47" r="1" fill="#1A1A1A"></circle><circle cx="241" cy="59" r="1" fill="#1A1A1A"></circle><circle cx="241" cy="71" r="1" fill="#1A1A1A"></circle><circle cx="241" cy="83" r="1" fill="#1A1A1A"></circle><circle cx="253" cy="11" r="1" fill="#1A1A1A"></circle><circle cx="253" cy="23" r="1" fill="#1A1A1A"></circle><circle cx="253" cy="35" r="1" fill="#1A1A1A"></circle><circle cx="253" cy="47" r="1" fill="#1A1A1A"></circle><circle cx="253" cy="59" r="1" fill="#1A1A1A"></circle><circle cx="265" cy="11" r="1" fill="#1A1A1A"></circle><circle cx="265" cy="23" r="1" fill="#1A1A1A"></circle><circle cx="265" cy="35" r="1" fill="#1A1A1A"></circle></g><defs><clipPath id="clip0"><rect width="266" height="132" fill="white"></rect></clipPath></defs></svg>